<svg width="180" height="89" viewBox="0 0 180 89" fill="none" xmlns="http://www.w3.org/2000/svg">
<path fill-rule="evenodd" clip-rule="evenodd" d="M69.8527 39.0541C76.8244 43.924 80.638 59.1481 80.638 59.1481C84.4404 25.0588 53.3657 15.319 53.3657 15.319C53.3657 15.319 52.7214 17.1358 53.3657 26.2538C54.0101 35.3717 62.8548 34.1805 69.849 39.0504L69.8527 39.0541Z" fill="#6B010A"/>
<path fill-rule="evenodd" clip-rule="evenodd" d="M50.8182 68.2661C53.3657 62.1899 48.9114 29.3068 48.9114 20.777C48.9114 12.2472 52.077 7.40348 52.077 7.40348C47.649 4.96103 44.4909 -6 44.4909 -6C43.1985 -2.95444 38.7742 3.73981 38.7742 3.73981C38.7742 3.73981 51.4588 64.0255 43.1985 71.2929C34.9381 78.5603 18.4736 79.834 8.95072 73.7653C-0.572117 67.6967 9.57258 48.1758 9.57258 48.1758C3.85588 54.8701 -0.575867 62.7855 0.0609868 71.2929C0.697841 79.8002 7.03641 88.3301 22.2647 88.9519C37.493 89.5738 48.2671 74.3422 50.8182 68.2698V68.2661Z" fill="#6B010A"/>
<path fill-rule="evenodd" clip-rule="evenodd" d="M132.028 45.7408C121.7 46.9134 116.025 64.239 115.568 65.6925C115.807 65.0444 117.208 62.2498 124.416 58.53C132.658 54.2482 149.141 63.3999 149.141 63.3999C141.54 70.0941 127.563 70.701 116.152 69.4723C104.741 68.2436 105.363 43.9128 104.737 25.0587C104.112 6.20469 100.287 8.0178 100.287 8.0178C100.287 8.0178 100.924 -0.523271 92.6895 38.436C84.4554 77.3952 40.033 87.1088 40.033 87.1088C64.7878 90.7762 82.5411 79.2083 88.8684 67.0448C95.1957 54.8813 99.6462 29.303 99.6462 29.303C99.6462 65.8348 102.834 74.949 112.357 79.2083C121.88 83.4676 140.274 77.399 153.599 72.5216C162.08 69.4236 172 70.7047 172 70.7047L179.605 59.1481C179.605 59.1481 168.809 59.7362 161.215 56.7169C153.621 53.6975 142.821 44.5346 132.028 45.7408Z" fill="#6B010A"/>
</svg>
